<?xml version="1.0" encoding="utf-8"?>
<!-- Generator: Adobe Illustrator 19.1.0, SVG Export Plug-In . SVG Version: 6.00 Build 0)  -->
<svg version="1.1" id="Layer_1" xmlns="http://www.w3.org/2000/svg" xmlns:xlink="http://www.w3.org/1999/xlink" x="0px" y="0px"
	 viewBox="0 0 60 60" style="enable-background:new 0 0 60 60;" xml:space="preserve">
<style type="text/css">
	.st0{fill:#FFFFFF;}
	.st1{fill:#BE2D26;}
	.st2{clip-path:url(#SVGID_2_);}
	.st3{clip-path:url(#SVGID_4_);fill:#6B8539;}
	.st4{opacity:0.75;clip-path:url(#SVGID_4_);}
	.st5{clip-path:url(#SVGID_6_);fill:#FFFFFF;}
</style>
<g>
	<defs>
		<rect id="SVGID_1_" width="60" height="60"/>
	</defs>
	<clipPath id="SVGID_2_">
		<use xlink:href="#SVGID_1_"  style="overflow:visible;"/>
	</clipPath>
	<g class="st2">
		<defs>
			<rect id="SVGID_3_" width="60" height="60"/>
		</defs>
		<clipPath id="SVGID_4_">
			<use xlink:href="#SVGID_3_"  style="overflow:visible;"/>
		</clipPath>
		<path class="st3" d="M30,60c16.6,0,30-13.4,30-30S46.6,0,30,0S0,13.4,0,30S13.4,60,30,60"/>
		<g class="st4">
			<g>
				<defs>
					<rect id="SVGID_5_" x="-6" y="3.7" width="74.5" height="38.9"/>
				</defs>
				<clipPath id="SVGID_6_">
					<use xlink:href="#SVGID_5_"  style="overflow:visible;"/>
				</clipPath>
				<path class="st5" d="M17.6,16.7c0.1,0.1,0.3,0.2,0.4,0.3c0.1-0.1,0.2-0.1,0.3-0.2c0.1,0,0.1,0,0.2-0.1c0.1,0,0.2,0,0.2,0.1
					c0.1,0,0.2,0,0.3,0c0.1,0,0.1,0,0.2,0c0.1,0,0.2,0,0.2,0c0.2,0.1,0.3,0.1,0.5,0.1c0.1,0.2,0.2,0.5,0.3,0.7c0,0.1,0,0.2,0,0.2
					c-0.1,0.1-0.1,0.3-0.2,0.5c-0.1,0.1-0.1,0.3-0.1,0.4c0,0.2-0.1,0.4,0,0.6c0,0.1,0,0.1-0.1,0.1c-0.1,0.1-0.2,0.1-0.3,0.2
					c0,0.2-0.1,0.3-0.3,0.4c-0.1,0.1-0.2,0.1-0.3,0.2c-0.1,0.1-0.2,0.1-0.2,0c-0.1-0.1-0.1-0.1-0.2-0.1c-0.3,0-0.6,0-0.9-0.1
					c-0.1,0-0.1,0-0.2,0c-0.2,0-0.3-0.1-0.4-0.3c0-0.1-0.1-0.1-0.2-0.2c-0.1-0.2-0.3-0.3-0.5-0.3c-0.2,0-0.3-0.1-0.5-0.1
					c-0.3-0.1-0.4-0.4-0.3-0.6c0.1-0.1,0.1-0.3,0.2-0.4c0.1-0.1,0.1-0.2,0.2-0.4c0-0.1,0.1-0.2,0.2-0.3c0.3-0.2,0.7-0.4,1-0.6
					c0.1-0.1,0.2-0.1,0.4-0.2C17.5,16.8,17.5,16.8,17.6,16.7L17.6,16.7z"/>
				<path class="st5" d="M44,41.6c-0.1,0-0.2,0-0.2-0.1c0,0,0,0,0,0c-0.1-0.2-0.3-0.2-0.5-0.3c-0.1,0-0.2-0.1-0.3-0.2
					c-0.1-0.1-0.2-0.2-0.4-0.2c-0.1,0-0.1,0-0.2-0.1c-0.2-0.1-0.4-0.2-0.4-0.5c-0.1-0.2-0.1-0.5-0.1-0.7c0-0.4,0.1-0.9,0.2-1.3
					c0.1-0.3,0.1-0.5,0-0.8c-0.1-0.2-0.1-0.4-0.2-0.6c0-0.1-0.1-0.2-0.1-0.2c-0.1-0.1-0.1-0.2-0.2-0.2c-0.1-0.1-0.1-0.3-0.1-0.4
					c0-0.2,0-0.4-0.1-0.6c0,0,0-0.1-0.1-0.1c-0.1-0.1-0.2-0.2-0.3-0.3c-0.3-0.2-0.4-0.5-0.4-0.9c0-0.1,0-0.1,0.1-0.2
					c0.1-0.1,0.2-0.2,0.4-0.3c0.1-0.1,0.2-0.3,0.4-0.4c0,0,0.1-0.1,0.2-0.1c0.1,0,0.1,0,0.2,0c0.1-0.1,0.2-0.2,0.2-0.4
					c0.2-0.3,0.4-0.6,0.7-0.8c0.2-0.2,0.2-0.5,0-0.6c-0.1-0.1-0.2-0.2-0.3-0.3c0,0-0.1-0.1-0.1-0.1c-0.1-0.2-0.2-0.4-0.3-0.6
					c-0.1-0.4,0-0.7,0.2-1c0,0,0.1-0.1,0.1-0.1c0.2,0.2,0.5,0.2,0.7,0.3c0.1,0,0.1,0.1,0.2,0.1c0.2,0.2,0.4,0.5,0.7,0.6
					c0.1,0,0.1,0.1,0.2,0.1c0.1,0.1,0.3,0.1,0.4,0.1c0.4,0,0.7,0.1,1.1,0.2c0.5,0.2,0.9,0.4,1.4,0.6c0.2,0.1,0.4,0.2,0.6,0.3
					c0.4,0.2,0.7,0.4,1,0.7c0.1,0.1,0.3,0.3,0.4,0.4c0.1,0.1,0.1,0.2,0.1,0.3c0,0.3,0,0.5,0,0.8c0,0,0,0,0,0.1c0,0.1,0,0.1,0.1,0.1
					c0.1,0,0.3,0,0.4-0.1c0.1,0,0.1,0,0.2,0.1c0.1,0.2,0.2,0.3,0.2,0.5c0,0.1,0,0.2,0.1,0.3c0,0.2,0.2,0.4,0.4,0.5
					c0.1,0,0.2,0.1,0.3,0.1c0.3,0.1,0.5,0.3,0.6,0.5c0,0,0,0,0,0.1c0.1,0.1,0.1,0.2,0,0.3c-0.3,0.3-0.7,0.6-1.1,0.9
					c-0.3,0.2-0.7,0.5-1.1,0.6c-0.2,0.1-0.4,0.2-0.7,0.4c-0.1,0.1-0.2,0.1-0.3,0.1c-0.3,0-0.6,0-0.9-0.1c-0.1,0-0.1,0-0.2,0.1
					c-0.1,0.1-0.2,0.2-0.3,0.4c-0.1,0.1-0.3,0.2-0.5,0.3c-0.1,0-0.1,0-0.2,0.1c-0.3,0.2-0.7,0.4-1,0.7c0,0-0.1,0-0.1,0.1
					c-0.3,0.2-0.3,0.2-0.3,0.5c0,0.1-0.1,0.3-0.2,0.4C44.4,41.1,44.2,41.3,44,41.6"/>
				<path class="st5" d="M36.5,25.8c-0.2-0.4-0.1-0.8,0.2-1.2c0.3-0.4,0.9-0.4,1.2,0.1c0.1,0.2,0.2,0.4,0.4,0.5
					c0.1,0.1,0.2,0.2,0.3,0.4c0.1,0.1,0.3,0.1,0.4,0c0.3-0.2,0.6-0.3,1-0.4c0.4-0.1,0.7-0.1,1,0.2c0.4,0.3,0.7,0.5,1,0.8
					c0.1,0.1,0.2,0.2,0.3,0.2c0.1,0.1,0.2,0.1,0.3,0.2c0.1,0,0.2,0.1,0.3,0.1c0.2,0.1,0.3,0.2,0.4,0.3c0.1,0.2,0.1,0.5-0.1,0.6
					c-0.2,0.2-0.5,0.3-0.8,0.5c-0.1,0-0.2,0.1-0.2,0.1c-0.2,0.1-0.4,0.1-0.6,0.1c-0.3,0-0.6,0.1-0.8,0.3c-0.2,0.2-0.5,0.2-0.8,0.3
					c-0.1,0-0.3,0-0.4,0.1c-0.1,0-0.2,0-0.3-0.1c-0.1-0.1-0.2-0.1-0.3-0.1c-0.1,0-0.2-0.1-0.3-0.2c0.1-0.2,0.1-0.4,0-0.7
					c0-0.3-0.1-0.5-0.1-0.8c0-0.1,0-0.1,0-0.2c-0.1-0.2-0.2-0.3-0.4-0.2c-0.1,0-0.3,0.1-0.4,0.1c-0.1,0-0.1,0-0.2,0
					c-0.2-0.2-0.5-0.4-0.7-0.5c-0.1-0.1-0.2-0.2-0.3-0.3C36.7,25.8,36.6,25.8,36.5,25.8"/>
				<path class="st5" d="M24.2,22.6c-0.2-0.4-0.4-0.7-0.7-1.1c-0.1-0.1-0.2-0.2-0.3-0.4c-0.1-0.2-0.2-0.3-0.2-0.5
					c0-0.3-0.2-0.5-0.3-0.8c0,0,0-0.1,0-0.1c0.2,0,0.4,0,0.6-0.1c0.2,0,0.4-0.1,0.6-0.1c0.2-0.1,0.3-0.2,0.4-0.3
					c0.2-0.3,0.4-0.5,0.7-0.8c0.1-0.1,0.2-0.2,0.3-0.2c0.2-0.1,0.3-0.1,0.5,0.1c0.1,0.2,0.2,0.4,0.3,0.6c0.1,0.1,0.1,0.3,0.2,0.4
					c0.2,0.2,0.3,0.4,0.5,0.5c0.1,0.1,0.2,0.2,0.2,0.2c0,0.1-0.1,0.2-0.1,0.4c0,0.2,0,0.3,0.2,0.4c0.1,0.1,0.2,0.2,0.3,0.4
					c0.1,0.1,0.1,0.1,0.2,0.2c0.2,0.1,0.3,0.1,0.4-0.1c0-0.1,0-0.1,0-0.2c0,0,0.1,0,0.2,0c0,0.1,0,0.1,0,0.1c0,0.1,0,0.2,0.1,0.3
					c0,0,0.1,0.1,0.1,0.1c0.1,0.1,0.1,0.2,0.1,0.3c0,0.2,0.1,0.4,0.2,0.6c0,0,0,0,0.1,0.1c0.1,0,0.1,0,0.2,0.1c0,0.1,0,0.2,0,0.3
					c-0.1,0.1-0.1,0.1-0.2,0c0,0,0,0,0,0c-0.2-0.2-0.3-0.2-0.5-0.1c-0.1,0.1-0.2,0.1-0.3,0.2c0,0-0.1,0-0.1,0.1
					c-0.1,0.1-0.3,0.1-0.4,0c-0.2-0.2-0.5-0.4-0.6-0.6c0,0-0.1-0.1-0.1-0.1c-0.1,0-0.1,0-0.2,0.1c0,0-0.1,0-0.1,0
					c-0.1,0-0.2,0-0.2-0.1c0-0.1,0-0.1,0-0.2c0,0,0.1-0.1,0.1-0.1c0-0.1,0-0.2-0.2-0.3c-0.2-0.1-0.4,0-0.5,0c-0.1,0-0.2,0-0.3,0.1
					c-0.1,0-0.1,0.1-0.1,0.2c0,0.1,0.1,0.1,0.2,0.2c0,0,0.1,0.1,0.2,0.1C25,22.5,24.6,22.5,24.2,22.6"/>
				<path class="st5" d="M34.2,22.6c0.1,0,0.2,0,0.3,0.1c0.2,0.1,0.4,0.2,0.5,0.3c0.1,0.1,0.2,0.1,0.3,0.1c0.5,0,1,0,1.5,0
					c0.1,0,0.3,0,0.4,0.1c0.2,0.1,0.2,0.2,0.1,0.3c-0.1,0.1-0.3,0.2-0.5,0.3c-0.3,0.2-0.7,0.4-1,0.5c-0.1,0.1-0.3,0.1-0.4,0
					c-0.2-0.1-0.4-0.1-0.7-0.2c-0.5-0.2-0.9-0.3-1.4-0.4c-0.2,0-0.4-0.1-0.6-0.1c-0.1,0-0.2,0-0.2,0c-0.2,0-0.3,0.1-0.5,0.2
					c-0.4,0.1-0.8,0.1-1.2,0.1c-0.2,0-0.3,0-0.5,0c-0.1,0-0.1-0.1-0.1-0.2c0.1-0.2,0.2-0.3,0.3-0.5c0.1-0.1,0.2-0.3,0.2-0.5
					c0-0.1,0-0.2,0.1-0.2c0.1-0.1,0.2-0.1,0.3-0.1c0.2,0,0.3,0.1,0.4,0.2c0,0.1,0.1,0.1,0.2,0.1c0.4,0,0.8,0,1.2,0.1
					c0.2,0,0.5,0.1,0.7,0.1c0.1,0,0.2,0,0.3,0C34,22.9,34.1,22.8,34.2,22.6C34.2,22.7,34.2,22.6,34.2,22.6"/>
				<path class="st5" d="M35.7,27.2c-0.4,0.5-0.8,0.8-1.3,1c-0.2,0.1-0.3,0.1-0.5,0.1c-0.3,0-0.5-0.2-0.5-0.5c0-0.2,0-0.4,0-0.7
					c0-0.1,0-0.2,0-0.3c0-0.1-0.1-0.2-0.1-0.2c-0.2-0.2-0.4-0.3-0.6-0.5c-0.2-0.2-0.4-0.3-0.7-0.4c0.1-0.2,0.2-0.3,0.3-0.4
					c0.2-0.1,0.4-0.1,0.6-0.1c0.2,0,0.3,0.1,0.5,0.1c0.3,0.1,0.6,0.1,0.9,0.1c0.2,0,0.4,0.1,0.6,0.3c0.2,0.2,0.4,0.5,0.6,0.8
					C35.5,26.7,35.6,27,35.7,27.2"/>
				<path class="st5" d="M13.4,20c-0.2,0.1-0.4,0.2-0.6,0.3c-0.4,0.2-0.6,0.4-0.8,0.8c-0.2,0.3-0.3,0.6-0.5,0.9
					c-0.2,0-0.2,0-0.3-0.1C11,21.5,11,21.3,11,21.1c0-0.3,0.1-0.5,0.2-0.7c0.1-0.2,0.2-0.3,0.4-0.5c0.2-0.1,0.4-0.3,0.6-0.4
					c0.1-0.1,0.1-0.1,0.2-0.2c0.2-0.3,0.4-0.6,0.7-0.9c0.1-0.2,0.4-0.2,0.5-0.1c0.1,0,0.1,0.1,0.1,0.2c0,0.1-0.1,0.1-0.1,0.2
					c0,0,0,0,0,0.1c-0.2,0.2-0.2,0.4-0.2,0.6C13.3,19.5,13.3,19.8,13.4,20"/>
				<path class="st5" d="M38,30c-0.1,0-0.3,0.1-0.4,0.1c-0.1,0-0.3,0-0.4-0.1c0,0-0.1,0-0.1,0c-0.4,0-0.7,0.1-1.1,0.1c0,0,0,0-0.1,0
					c-0.2,0-0.2,0-0.2-0.2c0-0.1,0-0.3,0-0.4c0,0,0.1-0.1,0.1-0.1c0.2-0.1,0.3-0.2,0.5-0.3c0.3-0.1,0.6-0.3,0.8-0.5
					c0.1-0.1,0.2-0.1,0.3,0c0.1,0.1,0.3,0.2,0.4,0.2c0,0,0.1,0,0.1,0.1c0.2,0.1,0.2,0.3,0,0.4c0,0,0,0,0,0C38,29.6,38,29.8,38,30"/>
			</g>
		</g>
	</g>
</g>
</svg>
