<svg xmlns="http://www.w3.org/2000/svg" viewBox="0 0 60 60"><path d="M30 60c16.6 0 30-13.4 30-30S46.6 0 30 0 0 13.4 0 30s13.4 30 30 30" fill="#365662"/><g opacity=".65" fill="#fff"><path class="st5" d="M15 23.7h29.8v25.1H15z"/><path d="M21.3 19.5l7.7-7.8 2.8 2.8 1.9-.9L29 8.8 18.4 19.5l3.4 3.4h2.8zm17-1.6l-2.3.9 1.6 1.5-2.5 2.5H38l2.5-2.5z"/><path d="M48.2 9L47 8.7c-.6-.1-1.3-.3-1.9-.4-.7-.1-1.3-.3-2-.4-.7-.2-1.5-.3-2.2-.5-.2-.1-.5-.2-.7-.2-.7 0-1.4-.1-2 .1h-.1c-.4.1-.8.2-1.2.4-.6.3-1.2.7-1.9 1.1L32.9 10c-.1.1-.2.2-.1.3l.3.3c.5.5 1 1 1.6 1.5.1.1.3.2.5.1.5-.2 1-.5 1.5-.7.3-.1.5-.3.8-.2.3.1.5.3.5.5 0 .3-.1.6-.4.8-.2.1-.3.2-.5.2-.6.3-6.3 2.8-7.1 3.1-.5.2-.9.6-1.2 1.1-.4.9 0 2 .9 2.4.6.3 1.3.3 1.9 0 .1-.1 1.8-.7 2.4-.9.6-.2 1.1-.4 1.7-.6l2.6-.9s1.2-.5 1.8.1c1 .3 1.9.6 3 .7 1.2.1 2.4 0 3.6-.3 1.2-.3 2.2-.8 3.2-1.5.1-.1 1.5-.4 1.5-.4l5.1-.1c-1.3-2.5-3-4.7-4.9-6.7h-2.4c-.5.3-.7.2-1 .2"/></g><path fill="#365662" d="M29.9 28l-2.1 6-6.3.2 5.1 3.8-1.8 6 5.2-3.6 5.2 3.5-1.9-6 5-3.9H32z"/></svg>