<svg xmlns="http://www.w3.org/2000/svg" viewBox="0 0 60 60"><path d="M30 60c16.6 0 30-13.4 30-30S46.6 0 30 0 0 13.4 0 30s13.4 30 30 30" fill="#804271"/><path opacity=".65" fill="#FFF" d="M41.9 39.3c.1-5.3 0-10.6 0-15.8 0-.3 0-.6-.1-.9-.3-1-1.1-1.6-2.2-1.5-1 .1-1.7.8-1.8 1.9v8.2c0 .7 0 .7-.8.7V16.6c0-.8-.2-1.7-1-2-.6-.2-1.4-.3-2.1-.1-.9.3-1.1 1.1-1.1 1.9v14.3c-1 .2-.8-.4-.8-.8V14.6c0-1.1-.2-2.1-1.3-2.7h-1.6c-1 .7-1.3 1.6-1.3 2.7.1 5 0 9.9 0 14.9 0 .2.1.5 0 .7-.1.2-.3.4-.5.5-.1-.1-.2-.1-.3-.2V16.4c0-.9-.3-1.7-1.2-2.1-1.5-.7-3 .3-3 2.1v20.1c-.1 0-.3.1-.4.1-.1-.3-.4-.5-.4-.8v-6.6c0-1.2-.9-2-2.2-1.9-1.3 0-1.9.5-1.9 1.9 0 3.2-.1 6.3 0 9.5.1 3.4 1.7 6 4.5 8.2.3.3.7.5 1 .7v11.8c2 .4 4.1.7 6.3.7 2.6 0 5.1-.3 7.5-.9V46.8c2.9-1.8 4.6-4.2 4.7-7.5"/></svg>