<svg xmlns="http://www.w3.org/2000/svg" viewBox="0 0 60 60"><path fill="#6B8539" d="M30 60c16.6 0 30-13.4 30-30S46.6 0 30 0 0 13.4 0 30s13.4 30 30 30"/><path d="M17.6 16.7c.1.1.3.2.4.3.1-.1.2-.1.3-.2.1 0 .1 0 .2-.1.1 0 .2 0 .2.1h.7c.2.1.3.1.5.1.1.2.2.5.3.7v.2c-.1.1-.1.3-.2.5-.1.1-.1.3-.1.4 0 .2-.1.4 0 .6 0 .1 0 .1-.1.1-.1.1-.2.1-.3.2 0 .2-.1.3-.3.4-.1.1-.2.1-.3.2-.1.1-.2.1-.2 0-.1-.1-.1-.1-.2-.1-.3 0-.6 0-.9-.1h-.2c-.2 0-.3-.1-.4-.3 0-.1-.1-.1-.2-.2-.1-.2-.3-.3-.5-.3s-.3-.1-.5-.1c-.3-.1-.4-.4-.3-.6.1-.1.1-.3.2-.4.1-.1.1-.2.2-.4 0-.1.1-.2.2-.3.3-.2.7-.4 1-.6.1-.1.2-.1.4-.2 0 .2 0 .2.1.1zM44 41.6c-.1 0-.2 0-.2-.1-.1-.2-.3-.2-.5-.3-.1 0-.2-.1-.3-.2-.1-.1-.2-.2-.4-.2-.1 0-.1 0-.2-.1-.2-.1-.4-.2-.4-.5-.1-.2-.1-.5-.1-.7 0-.4.1-.9.2-1.3.1-.3.1-.5 0-.8-.1-.2-.1-.4-.2-.6 0-.1-.1-.2-.1-.2-.1-.1-.1-.2-.2-.2-.1-.1-.1-.3-.1-.4 0-.2 0-.4-.1-.6 0 0 0-.1-.1-.1L41 35c-.3-.2-.4-.5-.4-.9 0-.1 0-.1.1-.2s.2-.2.4-.3c.1-.1.2-.3.4-.4 0 0 .1-.1.2-.1h.2c.1-.1.2-.2.2-.4.2-.3.4-.6.7-.8.2-.2.2-.5 0-.6l-.3-.3-.1-.1-.3-.6c-.1-.4 0-.7.2-1l.1-.1c.2.2.5.2.7.3.1 0 .1.1.2.1.2.2.4.5.7.6.1 0 .1.1.2.1.1.1.3.1.4.1.4 0 .7.1 1.1.2.5.2.9.4 1.4.6l.6.3c.4.2.7.4 1 .7l.4.4c.1.1.1.2.1.3v.9c0 .1 0 .1.1.1s.3 0 .4-.1c.1 0 .1 0 .2.1.1.2.2.3.2.5 0 .1 0 .2.1.3 0 .2.2.4.4.5.1 0 .2.1.3.1.3.1.5.3.6.5v.1c.1.1.1.2 0 .3-.3.3-.7.6-1.1.9-.3.2-.7.5-1.1.6-.2.1-.4.2-.7.4-.1.1-.2.1-.3.1-.3 0-.6 0-.9-.1-.1 0-.1 0-.2.1s-.2.2-.3.4c-.1.1-.3.2-.5.3-.1 0-.1 0-.2.1-.3.2-.7.4-1 .7 0 0-.1 0-.1.1-.3.2-.3.2-.3.5 0 .1-.1.3-.2.4-.2.4-.4.6-.6.9m-7.5-15.8c-.2-.4-.1-.8.2-1.2.3-.4.9-.4 1.2.1.1.2.2.4.4.5.1.1.2.2.3.4.1.1.3.1.4 0 .3-.2.6-.3 1-.4.4-.1.7-.1 1 .2.4.3.7.5 1 .8.1.1.2.2.3.2.1.1.2.1.3.2.1 0 .2.1.3.1.2.1.3.2.4.3.1.2.1.5-.1.6-.2.2-.5.3-.8.5-.1 0-.2.1-.2.1-.2.1-.4.1-.6.1-.3 0-.6.1-.8.3-.2.2-.5.2-.8.3-.1 0-.3 0-.4.1-.1 0-.2 0-.3-.1-.1-.1-.2-.1-.3-.1-.1 0-.2-.1-.3-.2.1-.2.1-.4 0-.7 0-.3-.1-.5-.1-.8v-.2c-.1-.2-.2-.3-.4-.2-.1 0-.3.1-.4.1h-.2c-.2-.2-.5-.4-.7-.5l-.3-.3c.1-.2 0-.2-.1-.2m-12.3-3.2c-.2-.4-.4-.7-.7-1.1-.1-.1-.2-.2-.3-.4-.1-.2-.2-.3-.2-.5 0-.3-.2-.5-.3-.8v-.1c.2 0 .4 0 .6-.1.2 0 .4-.1.6-.1.2-.1.3-.2.4-.3.2-.3.4-.5.7-.8.1-.1.2-.2.3-.2.2-.1.3-.1.5.1l.3.6c.1.1.1.3.2.4.2.2.3.4.5.5l.2.2c0 .1-.1.2-.1.4s0 .3.2.4c.1.1.2.2.3.4l.2.2c.2.1.3.1.4-.1v-.2h.2v.1c0 .1 0 .2.1.3l.1.1c.1.1.1.2.1.3 0 .2.1.4.2.6l.1.1c.1 0 .1 0 .2.1v.3c-.1.1-.1.1-.2 0-.2-.2-.3-.2-.5-.1-.1.1-.2.1-.3.2 0 0-.1 0-.1.1-.1.1-.3.1-.4 0-.2-.2-.5-.4-.6-.6l-.1-.1c-.1 0-.1 0-.2.1h-.1c-.1 0-.2 0-.2-.1v-.2l.1-.1c0-.1 0-.2-.2-.3-.2-.1-.4 0-.5 0-.1 0-.2 0-.3.1-.1 0-.1.1-.1.2s.1.1.2.2c0 0 .1.1.2.1-.7 0-1.1 0-1.5.1m10 0c.1 0 .2 0 .3.1.2.1.4.2.5.3.1.1.2.1.3.1h1.5c.1 0 .3 0 .4.1.2.1.2.2.1.3-.1.1-.3.2-.5.3-.3.2-.7.4-1 .5-.1.1-.3.1-.4 0-.2-.1-.4-.1-.7-.2-.5-.2-.9-.3-1.4-.4-.2 0-.4-.1-.6-.1h-.2c-.2 0-.3.1-.5.2-.4.1-.8.1-1.2.1h-.5c-.1 0-.1-.1-.1-.2.1-.2.2-.3.3-.5.1-.1.2-.3.2-.5 0-.1 0-.2.1-.2.1-.1.2-.1.3-.1.2 0 .3.1.4.2 0 .1.1.1.2.1.4 0 .8 0 1.2.1.2 0 .5.1.7.1h.3c.1 0 .2-.1.3-.3 0 .1 0 0 0 0m1.5 4.6c-.4.5-.8.8-1.3 1-.2.1-.3.1-.5.1-.3 0-.5-.2-.5-.5v-1c0-.1-.1-.2-.1-.2-.2-.2-.4-.3-.6-.5-.2-.2-.4-.3-.7-.4.1-.2.2-.3.3-.4.2-.1.4-.1.6-.1.2 0 .3.1.5.1.3.1.6.1.9.1.2 0 .4.1.6.3.2.2.4.5.6.8 0 .2.1.5.2.7M13.4 20l-.6.3c-.4.2-.6.4-.8.8-.2.3-.3.6-.5.9-.2 0-.2 0-.3-.1-.2-.4-.2-.6-.2-.8 0-.3.1-.5.2-.7.1-.2.2-.3.4-.5.2-.1.4-.3.6-.4l.2-.2c.2-.3.4-.6.7-.9.1-.2.4-.2.5-.1.1 0 .1.1.1.2s-.1.1-.1.2v.1c-.2.2-.2.4-.2.6-.1.1-.1.4 0 .6M38 30c-.1 0-.3.1-.4.1-.1 0-.3 0-.4-.1h-.1c-.4 0-.7.1-1.1.1h-.1c-.2 0-.2 0-.2-.2v-.4l.1-.1c.2-.1.3-.2.5-.3.3-.1.6-.3.8-.5.1-.1.2-.1.3 0 .1.1.3.2.4.2 0 0 .1 0 .1.1.2.1.2.3 0 .4.1.3.1.5.1.7" fill="#FFF" opacity=".75"/></svg>