<?xml version="1.0" encoding="utf-8"?>
<!-- Generator: Adobe Illustrator 19.1.0, SVG Export Plug-In . SVG Version: 6.00 Build 0)  -->
<svg version="1.1" id="Layer_1" xmlns="http://www.w3.org/2000/svg" xmlns:xlink="http://www.w3.org/1999/xlink" x="0px" y="0px"
	 viewBox="0 0 60 60" style="enable-background:new 0 0 60 60;" xml:space="preserve">
<style type="text/css">
	.st0{fill:#FFFFFF;}
	.st1{fill:#BE2D26;}
	.st2{clip-path:url(#SVGID_2_);}
	.st3{clip-path:url(#SVGID_4_);fill:#6B8539;}
	.st4{opacity:0.75;clip-path:url(#SVGID_4_);}
	.st5{clip-path:url(#SVGID_6_);fill:#FFFFFF;}
	.st6{clip-path:url(#SVGID_8_);}
	.st7{clip-path:url(#SVGID_10_);fill:#CD4A2D;}
	.st8{opacity:0.65;clip-path:url(#SVGID_10_);}
	.st9{clip-path:url(#SVGID_12_);fill:#FFFFFF;}
	.st10{clip-path:url(#SVGID_14_);}
	.st11{clip-path:url(#SVGID_16_);fill:#008FC5;}
	.st12{opacity:0.65;clip-path:url(#SVGID_16_);}
	.st13{clip-path:url(#SVGID_18_);fill:#FFFFFF;}
	.st14{clip-path:url(#SVGID_20_);}
	.st15{clip-path:url(#SVGID_22_);fill:#804271;}
	.st16{opacity:0.65;clip-path:url(#SVGID_22_);}
	.st17{clip-path:url(#SVGID_24_);fill:#FFFFFF;}
	.st18{clip-path:url(#SVGID_26_);}
	.st19{clip-path:url(#SVGID_28_);fill:#709899;}
	.st20{opacity:0.65;clip-path:url(#SVGID_28_);}
	.st21{clip-path:url(#SVGID_30_);fill:#FFFFFF;}
	.st22{clip-path:url(#SVGID_32_);fill:#FFFFFF;}
	.st23{clip-path:url(#SVGID_34_);fill:#FFFFFF;}
	.st24{clip-path:url(#SVGID_36_);fill:#FFFFFF;}
	.st25{clip-path:url(#SVGID_26_);fill:#709899;}
	.st26{clip-path:url(#SVGID_38_);}
	.st27{clip-path:url(#SVGID_40_);fill:#365662;}
	.st28{opacity:0.65;clip-path:url(#SVGID_40_);}
	.st29{clip-path:url(#SVGID_42_);fill:#FFFFFF;}
	.st30{clip-path:url(#SVGID_44_);fill:#FFFFFF;}
	.st31{clip-path:url(#SVGID_46_);fill:#FFFFFF;}
	.st32{clip-path:url(#SVGID_48_);fill:#FFFFFF;}
	.st33{clip-path:url(#SVGID_38_);fill:#365662;}
</style>
<g>
	<defs>
		<rect id="SVGID_37_" width="60" height="60"/>
	</defs>
	<clipPath id="SVGID_2_">
		<use xlink:href="#SVGID_37_"  style="overflow:visible;"/>
	</clipPath>
	<g class="st2">
		<defs>
			<rect id="SVGID_39_" width="60" height="60"/>
		</defs>
		<clipPath id="SVGID_4_">
			<use xlink:href="#SVGID_39_"  style="overflow:visible;"/>
		</clipPath>
		<path style="clip-path:url(#SVGID_4_);fill:#365662;" d="M30,60c16.6,0,30-13.4,30-30S46.6,0,30,0S0,13.4,0,30S13.4,60,30,60"/>
		<g style="opacity:0.65;clip-path:url(#SVGID_4_);">
			<g>
				<defs>
					<rect id="SVGID_41_" x="6" y="16.7" width="47.8" height="33.1"/>
				</defs>
				<clipPath id="SVGID_6_">
					<use xlink:href="#SVGID_41_"  style="overflow:visible;"/>
				</clipPath>
				<rect x="15" y="23.7" class="st5" width="29.8" height="25.1"/>
			</g>
		</g>
		<g style="opacity:0.65;clip-path:url(#SVGID_4_);">
			<g>
				<defs>
					<rect id="SVGID_43_" x="19.6" y="0.2" width="45.7" height="20.7"/>
				</defs>
				<clipPath id="SVGID_8_">
					<use xlink:href="#SVGID_43_"  style="overflow:visible;"/>
				</clipPath>
				<path style="clip-path:url(#SVGID_8_);fill:#FFFFFF;" d="M48.2,9c-0.4-0.1-0.8-0.2-1.2-0.3c-0.6-0.1-1.3-0.3-1.9-0.4
					c-0.7-0.1-1.3-0.3-2-0.4c-0.7-0.2-1.5-0.3-2.2-0.5c-0.2-0.1-0.5-0.2-0.7-0.2c-0.7,0-1.4-0.1-2,0.1c0,0-0.1,0-0.1,0
					c-0.4,0.1-0.8,0.2-1.2,0.4c-0.6,0.3-1.2,0.7-1.9,1.1c-0.7,0.4-1.4,0.8-2.1,1.2c-0.1,0.1-0.2,0.2-0.1,0.3
					c0.1,0.1,0.2,0.2,0.3,0.3c0.5,0.5,1,1,1.6,1.5c0.1,0.1,0.3,0.2,0.5,0.1c0.5-0.2,1-0.5,1.5-0.7c0.3-0.1,0.5-0.3,0.8-0.2
					c0.3,0.1,0.5,0.3,0.5,0.5c0,0.3-0.1,0.6-0.4,0.8c-0.2,0.1-0.3,0.2-0.5,0.2c-0.6,0.3-6.3,2.8-7.1,3.1c-0.5,0.2-0.9,0.6-1.2,1.1
					c-0.4,0.9,0,2,0.9,2.4c0.6,0.3,1.3,0.3,1.9,0c0.1-0.1,1.8-0.7,2.4-0.9c0.6-0.2,1.1-0.4,1.7-0.6l0,0l2.6-0.9c0,0,1.2-0.5,1.8,0.1
					c1,0.3,1.9,0.6,3,0.7c1.2,0.1,2.4,0,3.6-0.3c1.2-0.3,2.2-0.8,3.2-1.5c0.1-0.1,1.5-0.4,1.5-0.4l5.1-0.1c-1.3-2.5-3-4.7-4.9-6.7
					l-2.4,0C48.7,9.1,48.5,9,48.2,9"/>
			</g>
		</g>
		<g style="opacity:0.65;clip-path:url(#SVGID_4_);">
			<g>
				<defs>
					<rect id="SVGID_45_" x="9.4" y="1.8" width="33.3" height="22"/>
				</defs>
				<clipPath id="SVGID_10_">
					<use xlink:href="#SVGID_45_"  style="overflow:visible;"/>
				</clipPath>
				<polygon style="clip-path:url(#SVGID_10_);fill:#FFFFFF;" points="21.3,19.5 29,11.7 31.8,14.5 33.7,13.6 29,8.8 18.4,19.5 
					21.8,22.9 24.6,22.9 				"/>
			</g>
		</g>
		<g style="opacity:0.65;clip-path:url(#SVGID_4_);">
			<g>
				<defs>
					<rect id="SVGID_47_" x="26.1" y="10.9" width="23.4" height="12.9"/>
				</defs>
				<clipPath id="SVGID_12_">
					<use xlink:href="#SVGID_47_"  style="overflow:visible;"/>
				</clipPath>
				<polygon class="st9" points="38.3,17.9 36,18.8 37.6,20.3 35.1,22.8 38,22.8 40.5,20.3 				"/>
			</g>
		</g>
	</g>
	<polygon style="clip-path:url(#SVGID_2_);fill:#365662;" points="29.9,28 27.8,34 21.5,34.2 26.6,38 24.8,44 30,40.4 35.2,43.9 
		33.3,37.9 38.3,34 32,34 	"/>
</g>
</svg>
