<svg xmlns="http://www.w3.org/2000/svg" viewBox="-77 79 60 60"><style>.st0{clip-path:url(#SVGID_2_)}.st1{clip-path:url(#SVGID_5_)}.st2{fill:#008fc5}.st2,.st3{clip-path:url(#SVGID_6_)}.st4{opacity:.65}.st5{clip-path:url(#SVGID_8_);fill:#fff}</style><clipPath id="SVGID_2_"><path id="SVGID_1_" d="M-77 79h60v60h-60z"/></clipPath><g class="st0"><clipPath id="SVGID_5_"><path id="SVGID_3_" d="M-77 79h60v60h-60z"/></clipPath><clipPath id="SVGID_6_" class="st1"><path id="SVGID_4_" d="M-77 79h60v60h-60z"/></clipPath><path class="st2" d="M-47 139c16.6 0 30-13.4 30-30s-13.4-30-30-30-30 13.4-30 30 13.4 30 30 30"/><g class="st3 st4"><clipPath id="SVGID_8_"><path id="SVGID_7_" d="M-84.8 73.4H-10V140h-74.8z"/></clipPath><path class="st5" d="M-43.7 122h-6.5v16.9c1.1.1 2.1.2 3.2.2s2.2-.1 3.2-.2l.1-16.9zm3.1-30.3h7.1v-5.3H-42v8.1h1.4v-2.8zm-22.1 22h-3.1v-8.5l.6.4.4.3 2.1 1.5m0 0l5.6 3.9 8.8-6.1c0-.8-.4-2-1.3-2.6H-62c1.3-2.8 4.1-4.8 7.5-4.8h1.1c2.9 0 5.4 1.6 6.7 3.9.7 1.1 1.1 2.5 1.1 3.9v12h-17.2v-2.1h14.3v-1.8h-14.2m12.7-9.4l-7.1 4.9-5.6-3.8-1.5-1.1H-50zm23 15.9v-14.7c0-5.7-4.6-10.3-10.3-10.3h.1-18c-4.5.2-8.2 3.3-9.6 7.4h-3v12.9h2.5v4.7H-27z"/></g></g></svg>