<?xml version="1.0" encoding="utf-8"?>
<!-- Generator: Adobe Illustrator 19.1.0, SVG Export Plug-In . SVG Version: 6.00 Build 0)  -->
<svg version="1.1" id="Layer_1" xmlns="http://www.w3.org/2000/svg" xmlns:xlink="http://www.w3.org/1999/xlink" x="0px" y="0px"
	 viewBox="-77 79 60 60" style="enable-background:new -77 79 60 60;" xml:space="preserve">
<style type="text/css">
	.st0{clip-path:url(#SVGID_2_);}
	.st1{clip-path:url(#SVGID_5_);}
	.st2{clip-path:url(#SVGID_6_);fill:#008FC5;}
	.st3{clip-path:url(#SVGID_6_);}
	.st4{opacity:0.65;}
	.st5{clip-path:url(#SVGID_8_);fill:#FFFFFF;}
</style>
<g>
	<g>
		<defs>
			<rect id="SVGID_1_" x="-77" y="79" width="60" height="60"/>
		</defs>
		<clipPath id="SVGID_2_">
			<use xlink:href="#SVGID_1_"  style="overflow:visible;"/>
		</clipPath>
		<g class="st0">
			<g>
				<defs>
					<rect id="SVGID_3_" x="-77" y="79" width="60" height="60"/>
				</defs>
				<defs>
					<rect id="SVGID_4_" x="-77" y="79" width="60" height="60"/>
				</defs>
				<clipPath id="SVGID_5_">
					<use xlink:href="#SVGID_3_"  style="overflow:visible;"/>
				</clipPath>
				<clipPath id="SVGID_6_" class="st1">
					<use xlink:href="#SVGID_4_"  style="overflow:visible;"/>
				</clipPath>
				<path class="st2" d="M-47,139c16.6,0,30-13.4,30-30s-13.4-30-30-30s-30,13.4-30,30S-63.6,139-47,139"/>
				<g class="st3">
					<g class="st4">
						<g>
							<defs>
								<rect id="SVGID_7_" x="-84.8" y="73.4" width="74.8" height="66.6"/>
							</defs>
							<clipPath id="SVGID_8_">
								<use xlink:href="#SVGID_7_"  style="overflow:visible;"/>
							</clipPath>
							<path class="st5" d="M-43.7,122h-6.5v16.9c1.1,0.1,2.1,0.2,3.2,0.2c1.1,0,2.2-0.1,3.2-0.2L-43.7,122L-43.7,122z M-40.6,91.7
								h7.1v-5.3H-42v3.5v1.8v2.8h1.4V91.7z M-62.7,113.7h-2.1h-0.4h-0.6v-8.5l0.6,0.4l0.4,0.3l2.1,1.5 M-62.7,107.4l5.6,3.9
								l8.8-6.1c0-0.8-0.4-2-1.3-2.6H-62c1.3-2.8,4.1-4.8,7.5-4.8h1.1c2.9,0,5.4,1.6,6.7,3.9c0.7,1.1,1.1,2.5,1.1,3.9l0,0v12h-0.1
								h-2.1h-15v-2.1h14.3v-0.6v-1.2h-14.2 M-50,104.3l-7.1,4.9l-5.6-3.8l-1.5-1.1h1.7H-50z M-27,120.2v-14.7
								c0-5.7-4.6-10.3-10.3-10.3l0,0h0.1h-18l0,0c-4.5,0.2-8.2,3.3-9.6,7.4h-3v12.9h2.5v4.7h20.9h1.3H-27z"/>
						</g>
					</g>
				</g>
			</g>
		</g>
	</g>
</g>
</svg>
