<?xml version="1.0" encoding="utf-8"?>
<!-- Generator: Adobe Illustrator 19.1.0, SVG Export Plug-In . SVG Version: 6.00 Build 0)  -->
<svg version="1.1" id="Layer_1" xmlns="http://www.w3.org/2000/svg" xmlns:xlink="http://www.w3.org/1999/xlink" x="0px" y="0px"
	 viewBox="0 0 60 60" style="enable-background:new 0 0 60 60;" xml:space="preserve">
<style type="text/css">
	.st0{fill:#FFFFFF;}
	.st1{fill:#BE2D26;}
	.st2{clip-path:url(#SVGID_2_);}
	.st3{clip-path:url(#SVGID_4_);fill:#6B8539;}
	.st4{opacity:0.75;clip-path:url(#SVGID_4_);}
	.st5{clip-path:url(#SVGID_6_);fill:#FFFFFF;}
	.st6{clip-path:url(#SVGID_8_);}
	.st7{clip-path:url(#SVGID_10_);fill:#CD4A2D;}
	.st8{opacity:0.65;clip-path:url(#SVGID_10_);}
	.st9{clip-path:url(#SVGID_12_);fill:#FFFFFF;}
	.st10{clip-path:url(#SVGID_14_);}
	.st11{clip-path:url(#SVGID_16_);fill:#008FC5;}
	.st12{opacity:0.65;clip-path:url(#SVGID_16_);}
	.st13{clip-path:url(#SVGID_18_);fill:#FFFFFF;}
	.st14{clip-path:url(#SVGID_20_);}
	.st15{clip-path:url(#SVGID_22_);fill:#804271;}
	.st16{opacity:0.65;clip-path:url(#SVGID_22_);}
	.st17{clip-path:url(#SVGID_24_);fill:#FFFFFF;}
</style>
<g>
	<defs>
		<rect id="SVGID_19_" width="60" height="60"/>
	</defs>
	<clipPath id="SVGID_2_">
		<use xlink:href="#SVGID_19_"  style="overflow:visible;"/>
	</clipPath>
	<g class="st2">
		<defs>
			<rect id="SVGID_21_" width="60" height="60"/>
		</defs>
		<clipPath id="SVGID_4_">
			<use xlink:href="#SVGID_21_"  style="overflow:visible;"/>
		</clipPath>
		<path style="clip-path:url(#SVGID_4_);fill:#804271;" d="M30,60c16.6,0,30-13.4,30-30S46.6,0,30,0S0,13.4,0,30S13.4,60,30,60"/>
		<g style="opacity:0.65;clip-path:url(#SVGID_4_);">
			<g>
				<defs>
					<rect id="SVGID_23_" x="9.1" y="4.9" width="41.9" height="56.1"/>
				</defs>
				<clipPath id="SVGID_6_">
					<use xlink:href="#SVGID_23_"  style="overflow:visible;"/>
				</clipPath>
				<path class="st5" d="M41.9,39.3c0.1-5.3,0-10.6,0-15.8c0-0.3,0-0.6-0.1-0.9c-0.3-1-1.1-1.6-2.2-1.5c-1,0.1-1.7,0.8-1.8,1.9
					c0,0.3,0,0.6,0,0.8c0,2.5,0,4.9,0,7.4c0,0.7,0,0.7-0.8,0.7v-1c0-4.8,0-9.5,0-14.3c0-0.8-0.2-1.7-1-2c-0.6-0.2-1.4-0.3-2.1-0.1
					c-0.9,0.3-1.1,1.1-1.1,1.9c0,4.4,0,8.9,0,13.3v1c-1,0.2-0.8-0.4-0.8-0.8c0-5.1,0-10.2,0-15.3c0-1.1-0.2-2.1-1.3-2.7h-1.6
					c-1,0.7-1.3,1.6-1.3,2.7c0.1,5,0,9.9,0,14.9c0,0.2,0.1,0.5,0,0.7c-0.1,0.2-0.3,0.4-0.5,0.5c-0.1-0.1-0.2-0.1-0.3-0.2v-1
					c0-4.4,0-8.8,0-13.1c0-0.9-0.3-1.7-1.2-2.1c-1.5-0.7-3,0.3-3,2.1c0,6.3,0,12.7,0,19v1.1c-0.1,0-0.3,0.1-0.4,0.1
					c-0.1-0.3-0.4-0.5-0.4-0.8c0-2.2,0-4.4,0-6.6c0-1.2-0.9-2-2.2-1.9c-1.3,0-1.9,0.5-1.9,1.9c0,3.2-0.1,6.3,0,9.5
					c0.1,3.4,1.7,6,4.5,8.2c0.3,0.3,0.7,0.5,1,0.7v11.8c2,0.4,4.1,0.7,6.3,0.7c2.6,0,5.1-0.3,7.5-0.9V46.8
					C40.1,45,41.8,42.6,41.9,39.3"/>
			</g>
		</g>
	</g>
</g>
</svg>
