<svg id="Layer_1" xmlns="http://www.w3.org/2000/svg" viewBox="0 0 97.1 82"><style>.st35{fill:#e06729}.st36{opacity:.5;fill:#fff}</style><path class="st35" d="M48.5 0C21.7 0 0 21.7 0 48.5c0 9 2.4 17.3 6.7 24.5 1.9 3.2 4.2 6.2 6.7 8.9H83.8c2.6-2.7 4.8-5.7 6.7-8.9 4.2-7.2 6.7-15.6 6.7-24.5C97.1 21.7 75.3 0 48.5 0z"/><path class="st36" d="M48.5 23c-8.2 0-14.9 6.7-14.9 14.9 0 4.8 2.3 9 5.8 11.8 2.5 2 5.7 3.1 9.1 3.1s6.6-1.2 9.1-3.1c3.5-2.7 5.8-7 5.8-11.8 0-8.2-6.6-14.9-14.9-14.9zM76.6 73.1s-2.4-16.4-17.8-16.4H38.2c-15.5 0-17.8 16.4-17.8 16.4L18.7 82h59.8l-1.9-8.9z"/></svg>
