<?xml version="1.0" encoding="utf-8"?>
<!-- Generator: Adobe Illustrator 19.1.0, SVG Export Plug-In . SVG Version: 6.00 Build 0)  -->
<svg version="1.1" id="Layer_1" xmlns="http://www.w3.org/2000/svg" xmlns:xlink="http://www.w3.org/1999/xlink" x="0px" y="0px"
	 viewBox="0 0 137.2 108.9" style="enable-background:new 0 0 137.2 108.9;" xml:space="preserve">
<style type="text/css">
	.st0{fill:#FFFFFF;}
	.st1{fill:#BE2D26;}
	.st2{clip-path:url(#SVGID_2_);}
	.st3{clip-path:url(#SVGID_4_);fill:#6B8539;}
	.st4{opacity:0.75;clip-path:url(#SVGID_4_);}
	.st5{clip-path:url(#SVGID_6_);fill:#FFFFFF;}
	.st6{clip-path:url(#SVGID_8_);}
	.st7{clip-path:url(#SVGID_10_);fill:#CD4A2D;}
	.st8{opacity:0.65;clip-path:url(#SVGID_10_);}
	.st9{clip-path:url(#SVGID_12_);fill:#FFFFFF;}
	.st10{clip-path:url(#SVGID_14_);}
	.st11{clip-path:url(#SVGID_16_);fill:#008FC5;}
	.st12{opacity:0.65;clip-path:url(#SVGID_16_);}
	.st13{clip-path:url(#SVGID_18_);fill:#FFFFFF;}
	.st14{clip-path:url(#SVGID_20_);}
	.st15{clip-path:url(#SVGID_22_);fill:#804271;}
	.st16{opacity:0.65;clip-path:url(#SVGID_22_);}
	.st17{clip-path:url(#SVGID_24_);fill:#FFFFFF;}
	.st18{clip-path:url(#SVGID_26_);}
	.st19{clip-path:url(#SVGID_28_);fill:#709899;}
	.st20{opacity:0.65;clip-path:url(#SVGID_28_);}
	.st21{clip-path:url(#SVGID_30_);fill:#FFFFFF;}
	.st22{clip-path:url(#SVGID_32_);fill:#FFFFFF;}
	.st23{clip-path:url(#SVGID_34_);fill:#FFFFFF;}
	.st24{clip-path:url(#SVGID_36_);fill:#FFFFFF;}
	.st25{clip-path:url(#SVGID_26_);fill:#709899;}
	.st26{clip-path:url(#SVGID_38_);}
	.st27{clip-path:url(#SVGID_40_);fill:#365662;}
	.st28{opacity:0.65;clip-path:url(#SVGID_40_);}
	.st29{clip-path:url(#SVGID_42_);fill:#FFFFFF;}
	.st30{clip-path:url(#SVGID_44_);fill:#FFFFFF;}
	.st31{clip-path:url(#SVGID_46_);fill:#FFFFFF;}
	.st32{clip-path:url(#SVGID_48_);fill:#FFFFFF;}
	.st33{clip-path:url(#SVGID_38_);fill:#365662;}
	.st34{fill:none;}
	.st35{fill:#E06729;}
	.st36{opacity:0.5;fill:#FFFFFF;}
	.st37{fill:#6B8539;}
	.st38{opacity:0.75;}
</style>
<g>
	<g>
		<g>
			<g>
				<path class="st37" d="M137.4,69.1c0-37.8-30.7-68.5-68.5-68.5C31.1,0.6,0.4,31.3,0.4,69.1c0,14.8,4.7,28.4,12.7,39.6h111.7
					C132.7,97.5,137.4,83.9,137.4,69.1z"/>
			</g>
		</g>
		<g class="st38">
			<g>
				<path class="st0" d="M36.5,38.7c0.3,0.2,0.6,0.4,0.9,0.6c0.3-0.1,0.5-0.3,0.7-0.4c0.2-0.1,0.3-0.1,0.5-0.1c0.2,0,0.4,0,0.5,0.3
					c0.2,0,0.5-0.1,0.7-0.1c0.1,0,0.3,0,0.4-0.1c0.2-0.1,0.4,0,0.6,0.1c0.4,0.2,0.8,0.3,1.2,0.3c0.3,0.6,0.6,1.2,0.8,1.8
					c0.1,0.2,0.1,0.4,0,0.6c-0.2,0.4-0.4,0.7-0.5,1.1c-0.1,0.3-0.2,0.6-0.3,1c-0.1,0.5-0.2,0.9-0.1,1.4c0,0.1,0,0.2-0.1,0.3
					c-0.2,0.1-0.4,0.3-0.6,0.4c0,0.5-0.3,0.8-0.7,1.1c-0.2,0.2-0.5,0.3-0.7,0.5c-0.3,0.2-0.4,0.1-0.6-0.1c-0.1-0.1-0.3-0.2-0.5-0.2
					c-0.8,0-1.5,0-2.3-0.1c-0.2,0-0.3-0.1-0.5-0.1c-0.4-0.1-0.7-0.3-0.9-0.6c-0.1-0.2-0.3-0.3-0.4-0.5c-0.3-0.4-0.7-0.6-1.1-0.7
					c-0.4-0.1-0.8-0.2-1.2-0.3c-0.8-0.2-1-1-0.7-1.5c0.1-0.3,0.3-0.6,0.5-0.9c0.2-0.3,0.3-0.6,0.4-0.9c0.1-0.3,0.2-0.5,0.5-0.7
					c0.8-0.5,1.6-1,2.4-1.5c0.3-0.2,0.6-0.3,0.9-0.5c0.1,0,0.1-0.1,0.2-0.2H36.5z"/>
				<path class="st0" d="M99.3,98c-0.2,0-0.4,0-0.5-0.2c0,0-0.1,0-0.1-0.1c-0.3-0.4-0.8-0.6-1.2-0.8c-0.2-0.1-0.4-0.3-0.7-0.4
					c-0.3-0.2-0.6-0.4-0.9-0.5c-0.2,0-0.3-0.1-0.5-0.2c-0.5-0.2-0.9-0.6-1.1-1.1c-0.2-0.5-0.2-1.1-0.2-1.7c0-1,0.3-2.1,0.5-3.1
					c0.1-0.6,0.2-1.3-0.1-1.9c-0.2-0.4-0.2-0.9-0.4-1.3c-0.1-0.2-0.2-0.4-0.3-0.6c-0.1-0.2-0.3-0.4-0.4-0.6c-0.2-0.3-0.3-0.7-0.3-1
					c0-0.5-0.1-0.9-0.2-1.4c0-0.1-0.1-0.2-0.2-0.2c-0.3-0.2-0.5-0.4-0.8-0.6c-0.7-0.5-0.9-1.3-1-2.1c0-0.2,0.1-0.3,0.2-0.4
					c0.3-0.2,0.6-0.4,0.8-0.7c0.3-0.3,0.6-0.6,0.9-1c0.1-0.1,0.2-0.2,0.4-0.2s0.3,0,0.5,0c0.2-0.3,0.4-0.6,0.5-0.9
					c0.5-0.7,1-1.4,1.6-2c0.4-0.4,0.4-1.1,0-1.5c-0.2-0.2-0.5-0.5-0.7-0.7c-0.1-0.1-0.1-0.2-0.2-0.2c-0.2-0.5-0.4-1-0.6-1.5
					c-0.3-0.9-0.1-1.6,0.5-2.3c0.1-0.1,0.1-0.1,0.2-0.2c0.5,0.4,1.2,0.5,1.8,0.7c0.2,0,0.3,0.2,0.5,0.3c0.5,0.5,1.1,1.1,1.7,1.5
					c0.2,0.1,0.3,0.2,0.5,0.3c0.3,0.2,0.6,0.3,1,0.3c0.9-0.1,1.7,0.1,2.5,0.5c1.1,0.5,2.2,1,3.3,1.5c0.5,0.2,1,0.5,1.5,0.7
					c0.9,0.4,1.7,1.1,2.4,1.7c0.4,0.3,0.7,0.7,1,1c0.2,0.2,0.3,0.4,0.3,0.7c-0.1,0.6-0.1,1.2-0.1,1.9c0,0.1,0,0.1,0,0.2
					c0,0.3,0.1,0.3,0.3,0.3c0.3,0,0.7-0.1,1-0.1c0.2,0,0.3,0,0.4,0.2c0.2,0.4,0.4,0.8,0.5,1.2c0,0.2,0.1,0.5,0.1,0.7
					c0.1,0.6,0.5,0.9,1,1.1c0.3,0.1,0.5,0.2,0.8,0.3c0.6,0.3,1.1,0.7,1.5,1.2c0,0,0.1,0.1,0.1,0.1c0.1,0.2,0.1,0.5-0.1,0.6
					c-0.8,0.8-1.7,1.5-2.6,2.2c-0.8,0.6-1.7,1.1-2.5,1.5c-0.5,0.3-1.1,0.6-1.6,0.9c-0.2,0.2-0.5,0.2-0.8,0.2c-0.7-0.1-1.4-0.1-2-0.2
					c-0.2,0-0.4,0.1-0.5,0.2c-0.2,0.3-0.5,0.6-0.8,0.9c-0.3,0.3-0.7,0.4-1.1,0.6c-0.1,0.1-0.3,0.1-0.4,0.2c-0.8,0.5-1.6,1-2.4,1.6
					c-0.1,0-0.2,0.1-0.2,0.2c-0.6,0.5-0.7,0.5-0.7,1.3c0,0.4-0.2,0.6-0.4,0.9C100.4,96.7,99.9,97.4,99.3,98"/>
				<path class="st0" d="M81.5,60.3c-0.4-1-0.3-2,0.4-2.8c0.8-0.9,2.1-0.9,2.8,0.1c0.3,0.4,0.6,0.9,0.9,1.3c0.2,0.3,0.5,0.6,0.8,0.9
					c0.3,0.3,0.6,0.3,1,0.1c0.7-0.4,1.5-0.8,2.3-1c0.9-0.3,1.7-0.2,2.5,0.4c0.8,0.6,1.6,1.3,2.5,1.9c0.2,0.2,0.5,0.4,0.7,0.5
					c0.2,0.2,0.4,0.3,0.7,0.4c0.3,0.1,0.5,0.2,0.8,0.3c0.4,0.1,0.7,0.4,1,0.8c0.3,0.4,0.2,1.2-0.2,1.5c-0.5,0.5-1.2,0.8-1.8,1.1
					c-0.2,0.1-0.4,0.2-0.6,0.3c-0.5,0.3-1,0.3-1.5,0.3c-0.7,0-1.4,0.2-1.9,0.7c-0.5,0.4-1.2,0.5-1.8,0.6c-0.4,0.1-0.7,0.1-1.1,0.1
					c-0.2,0-0.4,0-0.6-0.1c-0.2-0.1-0.4-0.2-0.7-0.3c-0.2-0.1-0.4-0.2-0.6-0.4c0.3-0.5,0.1-1,0.1-1.6c-0.1-0.6-0.1-1.3-0.2-1.9
					c0-0.2-0.1-0.3-0.1-0.5c-0.2-0.5-0.5-0.7-1-0.5c-0.3,0.1-0.6,0.2-0.9,0.3c-0.2,0.1-0.3,0-0.4-0.1c-0.5-0.5-1.1-0.9-1.8-1.2
					c-0.3-0.2-0.5-0.4-0.7-0.6C82,60.4,81.8,60.3,81.5,60.3"/>
				<path class="st0" d="M52.3,52.8c-0.4-1-1-1.8-1.6-2.6c-0.2-0.3-0.4-0.6-0.6-0.9c-0.3-0.4-0.5-0.8-0.5-1.2
					c-0.1-0.7-0.4-1.3-0.7-1.9c0-0.1-0.1-0.2-0.1-0.3c0.5-0.1,1-0.1,1.5-0.2c0.5-0.1,0.9-0.2,1.3-0.4c0.4-0.1,0.7-0.4,1-0.7
					c0.5-0.6,1-1.2,1.6-1.8c0.2-0.2,0.4-0.4,0.6-0.5c0.5-0.3,0.8-0.2,1.1,0.2c0.3,0.4,0.6,0.9,0.8,1.4c0.1,0.3,0.3,0.6,0.5,0.9
					c0.4,0.4,0.7,0.9,1.1,1.3c0.2,0.2,0.4,0.4,0.5,0.6c-0.1,0.3-0.2,0.6-0.3,0.9c-0.1,0.4,0,0.8,0.4,1c0.3,0.2,0.5,0.5,0.8,0.9
					c0.1,0.2,0.3,0.4,0.4,0.5c0.4,0.3,0.8,0.1,0.9-0.3c0-0.1,0-0.3,0.1-0.5c0.1,0,0.2,0.1,0.4,0.1c0,0.1,0,0.2,0,0.3
					c-0.1,0.3,0,0.5,0.2,0.6c0.1,0.1,0.1,0.2,0.2,0.3c0.2,0.2,0.3,0.4,0.3,0.7c0,0.5,0.2,0.9,0.4,1.4c0,0.1,0.1,0.1,0.2,0.1
					c0.2,0.1,0.3,0.1,0.5,0.2c0.1,0.2,0,0.4-0.1,0.6c-0.1,0.2-0.3,0.2-0.5,0c0,0,0,0,0,0c-0.4-0.4-0.7-0.5-1.3-0.2
					c-0.3,0.1-0.5,0.3-0.8,0.4c-0.1,0-0.2,0.1-0.3,0.2c-0.3,0.2-0.6,0.2-0.9,0c-0.6-0.4-1.1-1-1.5-1.5c-0.1-0.1-0.2-0.2-0.3-0.2
					c-0.2-0.1-0.3,0-0.4,0.3c-0.1,0-0.1,0-0.2,0c-0.2,0-0.4-0.1-0.5-0.2c-0.1-0.2,0-0.3,0.1-0.5c0.1-0.1,0.2-0.2,0.2-0.3
					c0-0.4-0.1-0.6-0.5-0.7c-0.4-0.1-0.8-0.1-1.3,0c-0.2,0-0.4,0.1-0.6,0.2c-0.2,0.1-0.3,0.2-0.1,0.5c0.1,0.2,0.2,0.3,0.4,0.4
					c0.1,0.1,0.2,0.1,0.4,0.2C54.1,52.3,53.2,52.5,52.3,52.8"/>
				<path class="st0" d="M76,52.7c0.3,0,0.5,0.1,0.7,0.2c0.4,0.2,0.9,0.5,1.3,0.7c0.2,0.1,0.5,0.2,0.8,0.2c1.2,0,2.5,0,3.7,0
					c0.3,0,0.7,0.1,1,0.2c0.4,0.2,0.4,0.5,0.1,0.8c-0.3,0.3-0.8,0.5-1.2,0.8c-0.8,0.4-1.6,0.8-2.4,1.3c-0.3,0.2-0.6,0.2-0.9,0.1
					c-0.5-0.1-1-0.3-1.6-0.5c-1.1-0.4-2.2-0.8-3.4-1.1c-0.5-0.1-1-0.2-1.5-0.3c-0.2,0-0.4,0-0.5,0.1c-0.4,0.1-0.7,0.3-1.1,0.4
					c-0.9,0.3-1.9,0.3-2.9,0.2c-0.4,0-0.8-0.1-1.2-0.1c-0.3,0-0.3-0.1-0.2-0.4c0.2-0.4,0.4-0.8,0.7-1.1c0.3-0.3,0.4-0.7,0.5-1.1
					c0-0.2,0-0.4,0.1-0.5c0.2-0.1,0.4-0.2,0.6-0.2c0.4,0,0.7,0.1,0.9,0.4c0.1,0.1,0.2,0.2,0.4,0.2c1-0.1,1.9,0.1,2.9,0.3
					c0.6,0.1,1.2,0.2,1.8,0.3c0.2,0,0.4,0,0.6,0c0.4,0,0.7-0.2,0.8-0.6C75.9,52.8,75.9,52.8,76,52.7"/>
				<path class="st0" d="M79.6,63.6c-0.9,1.1-1.8,2-3.1,2.4c-0.4,0.1-0.8,0.2-1.3,0.2c-0.7-0.1-1.2-0.5-1.3-1.3
					c0-0.5-0.1-1.1-0.1-1.6c0-0.2,0-0.4-0.1-0.6c-0.1-0.2-0.2-0.4-0.3-0.5c-0.4-0.4-0.9-0.8-1.4-1.1c-0.5-0.4-1.1-0.7-1.6-1
					c0.1-0.4,0.4-0.7,0.8-0.9c0.4-0.2,0.9-0.2,1.4-0.1c0.4,0.1,0.8,0.2,1.1,0.3c0.7,0.2,1.4,0.2,2.1,0.3c0.6,0.1,1,0.3,1.4,0.7
					c0.6,0.5,1,1.1,1.4,1.8C79,62.6,79.3,63.1,79.6,63.6"/>
				<path class="st0" d="M26.3,46.4c-0.5,0.2-1,0.4-1.5,0.6c-0.8,0.4-1.5,1-2,1.8c-0.4,0.7-0.8,1.4-1.2,2.1c-0.4,0.1-0.5,0-0.7-0.3
					c-0.2-0.5-0.3-1-0.2-1.6c0-0.6,0.2-1.2,0.6-1.8c0.3-0.4,0.6-0.8,1-1.1c0.4-0.3,0.9-0.7,1.3-1c0.2-0.1,0.3-0.3,0.5-0.5
					c0.5-0.7,1-1.4,1.6-2.1c0.3-0.4,0.8-0.4,1.2-0.2c0.2,0.1,0.2,0.3,0.2,0.5c-0.1,0.2-0.2,0.3-0.2,0.4c0,0-0.1,0.1-0.1,0.1
					c-0.5,0.4-0.5,0.9-0.5,1.4C26.3,45.4,26.3,45.9,26.3,46.4"/>
				<path class="st0" d="M85.1,70.4c-0.3,0.1-0.6,0.2-0.9,0.2c-0.3,0-0.7,0.1-1-0.2c-0.1-0.1-0.2-0.1-0.4-0.1
					c-0.9-0.1-1.7,0.1-2.6,0.3c-0.1,0-0.1,0-0.2,0c-0.4,0.1-0.4,0-0.5-0.4c-0.1-0.3,0-0.7,0.1-1c0.1-0.1,0.2-0.2,0.3-0.3
					c0.4-0.2,0.7-0.5,1.1-0.7c0.7-0.3,1.4-0.7,2-1.1c0.2-0.2,0.5-0.2,0.7-0.1c0.3,0.2,0.7,0.4,1,0.6c0.1,0.1,0.2,0.1,0.3,0.2
					c0.4,0.3,0.4,0.6,0,0.9c0,0,0,0,0,0C85,69.4,85,69.9,85.1,70.4"/>
			</g>
		</g>
	</g>
</g>
</svg>
