<svg id="Layer_1" xmlns="http://www.w3.org/2000/svg" viewBox="0 0 63.9 75"><style>.st40{fill:#9d9fa2}.st41{fill:#8a8c8e}.st42{fill:#d1d3d4}</style><path class="st40" d="M31.8 7.8c11.8 0 21.4 9.6 21.4 21.4s-9.6 21.4-21.4 21.4S10.4 41 10.4 29.2 20 7.8 31.8 7.8M21.1 55.1H42.5c16.1 0 18.6 17.4 18.6 17.4l.5 2.5H64V0H0v75h2l.5-2.5S5 55.1 21.1 55.1"/><path class="st41" d="M31.8 50.6c11.8 0 21.4-9.6 21.4-21.4S43.6 7.8 31.8 7.8s-21.4 9.6-21.4 21.4S20 50.6 31.8 50.6M61.1 72.5s-2.5-17.4-18.6-17.4H21.1C5 55.1 2.5 72.5 2.5 72.5L2 75h59.5l-.4-2.5z"/><g><path class="st42" d="M16.3 31.4h1l1.2 3.4.3 1.3c0-.3.1-.6.1-1s.1-.7.2-1l.5-2.7h.9l-1.2 5.9h-.9l-1.1-3.4-.3-1.3c0 .3-.1.6-.1 1s-.1.7-.2 1l-.7 2.7h-.9l1.2-5.9zM22.5 37.4c-.2 0-.5 0-.7-.1s-.4-.2-.5-.4c-.1-.2-.3-.3-.3-.6s-.1-.5-.1-.7c0-.4.1-.8.2-1.2.1-.3.3-.6.6-.9.2-.2.5-.4.8-.6s.6-.2.9-.2c.5 0 .9.2 1.2.5.3.3.5.8.5 1.3 0 .4-.1.8-.2 1.2-.1.3-.3.6-.6.9-.2.2-.5.4-.8.6s-.7.2-1 .2zm.6-3.8c-.2 0-.3.1-.5.2s-.3.2-.4.4l-.3.6c-.1.2-.1.5-.1.8 0 .3.1.6.2.8.1.2.3.3.6.3.2 0 .3-.1.5-.2s.3-.2.4-.4l.3-.6c.1-.2.1-.5.1-.8 0-.3-.1-.6-.2-.8s-.3-.3-.6-.3zM28 37.8l-.3 1.3h-1l1.2-6.2h.8v.5c.2-.2.4-.3.7-.5s.5-.2.7-.2c.4 0 .7.1.9.4.2.3.3.7.3 1.2 0 .4-.1.8-.2 1.2s-.3.7-.5 1-.5.5-.8.6-.6.2-.9.2c-.2 0-.4-.1-.6-.2-.2-.1-.3-.2-.4-.4l.1 1.1zm1.9-4.2c-.2 0-.4.1-.6.2s-.4.3-.6.5l-.4 1.9c.1.2.2.3.3.4.1.1.3.1.4.1.2 0 .4-.1.5-.2l.5-.5c.1-.2.2-.4.3-.7.1-.3.1-.5.1-.8 0-.3-.1-.6-.2-.7s-.1-.2-.3-.2zM33.4 31h1l-.4 1.9-.2.6c.2-.2.5-.4.7-.5.2-.1.5-.2.8-.2.4 0 .6.1.8.3.2.2.2.5.2.8v.3c0 .1 0 .2-.1.3l-.6 2.8h-1l.5-2.7v-.3-.2c0-.4-.2-.6-.6-.6-.2 0-.3.1-.5.2s-.4.3-.6.5l-.6 3h-1l1.6-6.2zM38.6 37.4c-.2 0-.5 0-.7-.1s-.4-.2-.5-.4c-.1-.2-.3-.3-.3-.6s-.1-.4-.1-.7c0-.4.1-.8.2-1.2.1-.3.3-.6.6-.9.2-.2.5-.4.8-.6s.6-.2.9-.2c.5 0 .9.2 1.2.5.3.3.5.8.5 1.3 0 .4-.1.8-.2 1.2-.1.3-.3.6-.6.9-.2.2-.5.4-.8.6s-.7.2-1 .2zm.7-3.8c-.2 0-.3.1-.5.2s-.3.2-.4.4l-.3.6c-.1.2-.1.5-.1.8 0 .3.1.6.2.8.1.2.3.3.6.3.2 0 .3-.1.5-.2s.3-.2.4-.4l.3-.6c.1-.2.1-.5.1-.8 0-.3-.1-.6-.2-.8s-.3-.3-.6-.3zM42.5 33.7h-.6l.1-.7h.7l.4-1.2h.8l-.2 1.2h1.1l-.2.8h-1.1l-.5 2.1v.3c0 .2 0 .3.1.4.1.1.2.1.4.1h.2c.1 0 .1-.1.2-.1l.2.7c-.1 0-.2.1-.4.1s-.3.1-.5.1c-.4 0-.7-.1-.9-.3-.2-.2-.3-.5-.3-.8v-.3-.3l.5-2.1zM46.3 37.4c-.2 0-.5 0-.7-.1s-.4-.2-.5-.4c-.1-.2-.3-.3-.3-.6s-.1-.5-.1-.7c0-.4.1-.8.2-1.2.1-.3.3-.6.6-.9.2-.2.5-.4.8-.6s.6-.2.9-.2c.5 0 .9.2 1.2.5.3.3.5.8.5 1.3 0 .4-.1.8-.2 1.2-.1.3-.3.6-.6.9-.2.2-.5.4-.8.6s-.6.2-1 .2zm.7-3.8c-.2 0-.3.1-.5.2s-.3.2-.4.4l-.3.6c-.1.2-.1.5-.1.8 0 .3.1.6.2.8.1.2.3.3.6.3.2 0 .3-.1.5-.2s.3-.2.4-.4l.3-.6c.1-.2.1-.5.1-.8 0-.3-.1-.6-.2-.8s-.3-.3-.6-.3z"/></g><g><path class="st42" d="M14.7 45.8c0-.4.1-.8.2-1.2.1-.4.3-.7.5-1 .2-.3.5-.5.8-.6s.6-.2.9-.2c.2 0 .4.1.6.2s.3.3.4.5l.2-.5h.8l-.9 4.4h-.8v-.6c-.2.2-.4.4-.7.5-.3.1-.5.2-.8.2-.4 0-.7-.1-.9-.4-.2-.4-.3-.8-.3-1.3zm1.7.8c.2 0 .4-.1.6-.2.2-.1.4-.3.6-.6L18 44c-.1-.2-.2-.3-.3-.4s-.3-.1-.4-.1c-.2 0-.4.1-.5.2l-.5.5c-.2.2-.2.4-.3.7-.1.3-.1.5-.1.8 0 .3.1.6.2.7-.1.2 0 .2.3.2zM19.8 42.9h1l.2 2.3c0 .2 0 .4.1.7v.7c.1-.2.2-.5.3-.7.1-.2.2-.4.3-.7l1.1-2.3h1l-2.3 4.4h-1.1l-.6-4.4zM23.8 45.8c0-.4.1-.8.2-1.2s.3-.7.5-1c.2-.3.5-.5.8-.6.3-.2.6-.2.9-.2.2 0 .4.1.6.2.2.1.3.3.4.5l.2-.5h.8l-.9 4.4h-.8v-.6c-.2.2-.4.4-.7.5-.3.1-.5.2-.8.2-.4 0-.7-.1-.9-.4-.2-.4-.3-.8-.3-1.3zm1.7.8c.2 0 .4-.1.6-.2.2-.1.4-.3.6-.6l.4-1.8c-.1-.2-.2-.3-.3-.4s-.3-.1-.4-.1c-.2 0-.4.1-.5.2-.2.1-.3.3-.5.5-.1.2-.2.4-.3.7-.1.3-.1.5-.1.8 0 .3.1.6.2.7s.1.2.3.2zM29.5 42.9h1l-.9 4.4h-1l.9-4.4zm.7-.8c-.1 0-.3 0-.4-.1-.1-.1-.2-.2-.2-.4s.1-.3.2-.4.3-.2.5-.2c.1 0 .3 0 .4.1.1.1.2.2.2.4s-.1.3-.2.5c-.2.1-.3.1-.5.1zM32.1 41h1L32 46.3v.2c0 .1.1.2.2.2h.2v.7c-.1 0-.1.1-.2.1h-.3c-.3 0-.4-.1-.6-.2-.1-.1-.2-.3-.2-.5 0-.1 0-.3.1-.5l.9-5.3zM33.3 45.8c0-.4.1-.8.2-1.2.1-.4.3-.7.5-1 .2-.3.5-.5.8-.6s.6-.2.9-.2c.2 0 .4.1.6.2s.3.3.4.5l.2-.5h.8l-.9 4.4H36v-.6c-.2.2-.4.4-.7.5-.3.1-.5.2-.8.2-.4 0-.7-.1-.9-.4-.2-.4-.3-.8-.3-1.3zm1.7.8c.2 0 .4-.1.6-.2.2-.1.4-.3.6-.6l.4-1.8c-.1-.2-.2-.3-.3-.4s-.3-.1-.4-.1c-.2 0-.4.1-.5.2l-.5.5c-.2.2-.2.4-.3.7-.1.3-.1.5-.1.8 0 .3.1.6.2.7-.1.2.1.2.3.2zM38.1 47.3l1.3-6.4h1l-.4 1.6-.2.8c.2-.2.4-.3.7-.4.2-.1.5-.2.7-.2.4 0 .7.1.9.4s.3.7.3 1.2c0 .4-.1.8-.2 1.2-.1.4-.3.7-.5 1-.2.3-.5.5-.8.6s-.6.2-.9.2c-.2 0-.4-.1-.6-.2-.2-.1-.3-.3-.4-.5l-.2.5h-.7zm2.7-3.7c-.2 0-.4.1-.6.2-.2.1-.4.3-.6.5l-.4 1.9c.1.2.2.3.3.4s.3.1.4.1c.2 0 .4-.1.5-.2.2-.1.3-.3.5-.5.1-.2.2-.4.3-.7.1-.3.1-.5.1-.8 0-.3-.1-.6-.2-.7.1-.1-.1-.2-.3-.2zM44.3 41h1l-1.1 5.3v.2c0 .1.1.2.2.2h.2v.7c-.1 0-.1.1-.2.1h-.3c-.3 0-.4-.1-.6-.2-.1-.1-.2-.3-.2-.5 0-.1 0-.3.1-.5l.9-5.3zM45.5 45.6c0-.4.1-.8.2-1.1.1-.3.3-.6.6-.9.2-.2.5-.4.8-.6.3-.1.6-.2.9-.2.3 0 .5 0 .7.1s.3.2.4.3c.1.1.2.3.2.5.1.2.1.4.1.6 0 .2 0 .4-.1.6 0 .2-.1.3-.1.4h-2.7v.6c0 .2.1.3.2.4.1.1.2.2.4.2.1.1.3.1.5.1s.3 0 .5-.1.3-.2.4-.2l.4.6c-.2.1-.4.2-.7.3-.3.1-.5.1-.9.1-.3 0-.5 0-.7-.1s-.4-.2-.6-.4c-.2-.2-.3-.4-.4-.6-.1-.1-.1-.3-.1-.6zm2.9-.9v-.2-.2c0-.2-.1-.4-.2-.6-.1-.2-.3-.2-.6-.2s-.5.1-.8.3c-.2.2-.4.5-.5.9h2.1z"/></g></svg>