<svg xmlns="http://www.w3.org/2000/svg" viewBox="0 0 271.9 46.9"><path d="M222.4 45.6V6.3H257c-.3.3-4.8 5.6-4.8 5.6H228V40h28.1l.1-14.7 5.5-5.5v25.8h-39.3z"/><path d="M242.6 35.6s-8.5-7.7-12.5-11.7c1.5-1.5 4.8-4.9 4.8-4.9l7.3 8.4 21-25 6.4 6.8-27 26.4zM8.4 45.6H1.6V6.4h10c4.2 0 6.3 2.1 6.3 6.3v12.4c0 4.2-2.1 6.3-6.3 6.3H8.4v14.2zm1.4-33.3H8.4v13.4h1.5c.8 0 1.2-.4 1.2-1.2v-11c-.1-.8-.4-1.2-1.3-1.2zM30.8 46h-4.4c-4.3 0-6.3-2.1-6.3-6.4V12.4c0-4.3 2.1-6.3 6.3-6.3h4.4c4.2 0 6.3 2.1 6.3 6.3v27.2c0 4.2-2.1 6.4-6.3 6.4zm-1.7-34.1h-1c-.8 0-1.2.4-1.2 1.2v25.7c0 .8.4 1.2 1.2 1.2h1c.8 0 1.2-.4 1.2-1.2V13.2c0-.9-.4-1.3-1.2-1.3zM56.1 6.4L58 27.8l1.8-21.4h6l-4.1 39.2h-7.5l-1.7-17.8-1.7 17.8h-7.5L39 6.4h6.9L47.7 28l2-21.6h6.4zM80.5 6.4v6h-5.8v10.2h5.6v6h-5.6v10.8h5.9v6.1H67.9V6.4h12.6zM99.6 31.5v14.2h-6.8V31.5c0-.8-.4-1.2-1.2-1.2h-1.7v15.3h-6.8V6.4h10.1c4.3 0 6.3 2.1 6.3 6.3V22c0 2.9-1.1 4.4-2.9 5 2.1.7 3 2 3 4.5zm-8.1-19.1h-1.7v12.2h1.7c.8 0 1.2-.4 1.2-1.2v-9.7c0-.9-.3-1.3-1.2-1.3zM126.1 29.8v9.5c0 4.3-2.1 6.3-6.3 6.3h-10.1V6.4h10c4.2 0 6.3 2.1 6.3 6.3v7.6c0 2.9-1 4.4-2.8 5.1 2 .6 2.9 1.9 2.9 4.4zm-8-17.5h-1.6V23h1.6c.8 0 1.2-.4 1.2-1.2v-8.2c0-.9-.4-1.3-1.2-1.3zm-1.7 27.5h1.7c.8 0 1.2-.4 1.2-1.2v-8.7c0-.8-.3-1.2-1.2-1.2h-1.7v11.1zM139.3 45.6l-.6-5.7h-4.2l-.5 5.7h-6.2l4.5-39.2h9.3l4.5 39.2h-6.8zM135.1 34h3.2l-1.6-18.1-1.6 18.1zM155 6.4v33.1h4.9v6.1h-11.7V6.4h6.8zM169 6.4v33.1h4.9v6.1h-11.7V6.4h6.8zM186.8 46h-4.4c-4.3 0-6.3-2.1-6.3-6.4V12.4c0-4.3 2.1-6.3 6.3-6.3h4.4c4.2 0 6.3 2.1 6.3 6.3v27.2c0 4.2-2.1 6.4-6.3 6.4zm-1.7-34.1h-1c-.8 0-1.2.4-1.2 1.2v25.7c0 .8.4 1.2 1.2 1.2h1c.8 0 1.2-.4 1.2-1.2V13.2c0-.9-.4-1.3-1.2-1.3zM199.4 45.6V12.5h-4.1v-6h15.1v6h-4.1v33.2h-6.9z"/></svg>