<svg xmlns="http://www.w3.org/2000/svg" viewBox="0 0 300 46.9"><path d="M9.8 43H3V3.8h10c4.2 0 6.3 2.1 6.3 6.3v12.4c0 4.2-2.1 6.3-6.3 6.3H9.8V43zm1.4-33.3H9.8V23h1.5c.8 0 1.2-.4 1.2-1.2v-11c0-.8-.4-1.1-1.3-1.1zM32.2 43.4h-4.4c-4.3 0-6.3-2.1-6.3-6.4V9.8c0-4.3 2.1-6.3 6.3-6.3h4.4c4.2 0 6.3 2.1 6.3 6.3V37c.1 4.2-2.1 6.4-6.3 6.4zM30.6 9.3h-1c-.8 0-1.2.4-1.2 1.2v25.7c0 .8.4 1.2 1.2 1.2h1c.8 0 1.2-.4 1.2-1.2V10.6c-.1-.9-.5-1.3-1.2-1.3zM57.5 3.8l1.9 21.4 1.8-21.4h6L63.1 43h-7.5l-1.7-17.8L52.1 43h-7.5L40.5 3.8h6.9l1.7 21.6 2-21.6h6.4zM82 3.8v6h-5.8V20h5.6v6h-5.6v10.8h5.9V43H69.4V3.8H82zM101 28.9V43h-6.8V28.9c0-.8-.4-1.2-1.2-1.2h-1.7V43h-6.8V3.8h10.1c4.3 0 6.3 2.1 6.3 6.3v9.3c0 2.9-1.1 4.4-2.9 5 2.1.7 3 2 3 4.5zM92.9 9.8h-1.7V22h1.7c.8 0 1.2-.4 1.2-1.2V11c0-.8-.3-1.2-1.2-1.2zM127.5 27.2v9.5c0 4.3-2.1 6.3-6.3 6.3h-10.1V3.8h10c4.2 0 6.3 2.1 6.3 6.3v7.6c0 2.9-1 4.4-2.8 5.1 2 .6 2.9 1.9 2.9 4.4zm-8-17.5h-1.6v10.7h1.6c.8 0 1.2-.4 1.2-1.2V11c0-1-.4-1.3-1.2-1.3zm-1.6 27.5h1.7c.8 0 1.2-.4 1.2-1.2v-8.7c0-.8-.3-1.2-1.2-1.2h-1.7v11.1zM140.8 43l-.6-5.7H136l-.5 5.7h-6.2l4.5-39.2h9.3l4.5 39.2h-6.8zm-4.3-11.6h3.2l-1.6-18.1-1.6 18.1zM156.4 3.8v33.1h4.9V43h-11.7V3.8h6.8zM170.4 3.8v33.1h4.9V43h-11.7V3.8h6.8zM188.2 43.4h-4.4c-4.3 0-6.3-2.1-6.3-6.4V9.8c0-4.3 2.1-6.3 6.3-6.3h4.4c4.2 0 6.3 2.1 6.3 6.3V37c0 4.2-2.1 6.4-6.3 6.4zm-1.7-34.1h-1c-.8 0-1.2.4-1.2 1.2v25.7c0 .8.4 1.2 1.2 1.2h1c.8 0 1.2-.4 1.2-1.2V10.6c0-.9-.4-1.3-1.2-1.3zM200.8 43V9.9h-4.1v-6h15.1v6h-4.1V43h-6.9z"/><g><path d="M235.2 43h-1.8l-1.2-8.3h-8L223 43h-1.8l6-39.4h2l6 39.4zm-10.8-10.1h7.4L228 7.6l-3.6 25.3zM238.3 3.8h5.5c4.7 0 6.9 2.2 6.9 6.9V36c0 4.6-2.3 6.9-6.9 6.9h-5.5V3.8zm1.9 37.4h3.5c3.5 0 5.1-1.7 5.1-5.2V10.8c0-3.5-1.6-5.2-5.1-5.2h-3.5v35.6zM255.8 8.9l.2 24.2V43h-1.8V3.8h2.4l6.9 35.2 6.9-35.2h2.4V43H271V33l.2-24.1-6.8 34.1h-1.7l-6.9-34.1zM278.5 43h-1.9V3.8h1.9V43zM293.1 43l-9.4-34.1.2 24.9V43h-1.8V3.8h2l9.3 34.2-.2-25V3.8h1.8V43h-1.9z"/></g></svg>
