<svg xmlns="http://www.w3.org/2000/svg" viewBox="0 0 257 43"><path d="M179.1 36.2V17.7v18.5M55.3 24.4h-.2c-.6-6.8-1.2-13.7-1.8-20.5h-6.4c-.6 7-1.3 13.9-1.9 20.9h-.1c-.6-6.9-1.1-13.9-1.7-20.9h-6.9C37.7 17 39.1 30 40.4 43h7.5c.6-5.7 1.1-11.3 1.7-16.9h.2c.6 5.7 1.1 11.3 1.7 16.9H59c1.4-13 2.7-26 4.1-39.1h-6c-.7 6.8-1.2 13.6-1.8 20.5M114.7 35.9c0 1.3-.3 1.6-1.6 1.6h-1.3V26.3c.7 0 1.3-.1 2 0 .8.1.9.7.9 1.4v8.2m-2.9-25.8l.1-.1c2.4-.2 2.7 0 2.7 2.5v5.9c0 2.2-.5 2.6-2.9 2.2V10.1zm6.8 13.1c2-1.5 2.6-2.3 2.7-4.3.1-3.2.1-6.5-.1-9.7-.1-2.9-2-4.8-5-5-3.7-.2-7.4 0-11.1 0v39c3.8 0 7.6.1 11.3 0 3-.1 4.9-2.2 5-5.2.1-3.3.1-6.6.1-9.9-.1-2.2-.4-4.2-2.9-4.9M27.6 37.4h-2.1c-.5 0-.7-.3-.7-1V11.3c0-.3 0-.6.1-.9 0-.8.5-1.1 1.3-1.1h.8c.9 0 1.2.3 1.2 1.3V36.4c0 .2.1 1-.6 1M35 19.9c0-3.7 0-7.4-.1-11.2-.1-2.7-1.6-4.6-4.2-5-2.9-.4-5.8-.5-8.7.1-2 .4-3.3 1.8-3.7 3.8-.2 1-.3 2-.3 3V34c0 1.4.1 2.7.1 4.1.1 2.6 1.6 4.5 4.1 4.9 2.5.3 5.1.4 7.6.2 3.4-.2 5.1-2.2 5.1-5.6.1-4.7 0-9.5 0-14.2.1-1.2.1-2.3.1-3.5M178.5 37.6c-.8.1-1.6 0-2.3-.1-.1 0-.3-.4-.3-.6-.1-.4-.1-.3-.1-.7V11.6v-.2c0-1.7 1.1-2.4 2.8-1.8.6.2.6.7.6 1.3V36.1c-.1.7 0 1.4-.7 1.5m7.4-16.8c0-3.9 0-7.8-.1-11.6 0-2.7-1.6-4.7-4.2-5-2.8-.3-5.6-.2-8.4 0-2.2.2-3.6 1.8-4 4-.1.7-.2 1.4-.2 2.2v26.9c0 .5 0 1 .1 1.5.2 2.5 1.6 4.5 4.1 4.8 2.5.3 5.1.4 7.6.2 3.3-.2 5-2.2 5.1-5.5.1-4.8 0-9.5 0-14.3v-3.2M87.7 21.9c-1.6.1-1.6.1-1.6-1.4v-4.7-2.6-2.6c0-.6.1-.9.8-.8h.9c.9 0 1.2.3 1.2 1.2v9.5c0 1-.3 1.3-1.3 1.4m8.1 5.8c-.1-1.4-.8-2.4-2.2-3l-.6-.3c2-1.2 2.7-2.2 2.7-4.1 0-3.7.1-7.4 0-11.2-.1-2.9-1.7-4.9-4.5-5.1-3.8-.2-7.7 0-11.7 0v39h6.7V27.6h1.7c.6 0 1.1.3 1.1 1 0 .3.1.7.1 1V42.8H96V42 31.3c-.1-1.2-.1-2.4-.2-3.6M129.8 31.6l1.5-17.4h.1c.5 5.8 1 11.6 1.6 17.4h-3.2zm-2.7-27.4c-1.5 13-3 26-4.5 39.1h6.2c.2-1.9.3-3.7.5-5.6h4.2c.2 1.9.4 3.7.6 5.6h6.7c-1.5-13.1-3-26.1-4.5-39.1h-9.2zM9.6 21.7c0 .8-.7 1.2-1.2 1.2H7V9.6h1.6c.8 0 1 .3 1 1.5v10.6m5.5-15.6c-1-1.7-2.8-2.3-4.6-2.3C7.1 3.7.2 3.8 0 3.8v39.1h6.7v-1-13.1H8c.9 0 1.8 0 2.7-.1 3.1-.1 5.2-1.9 5.3-5 .2-4.7.1-9.5.1-14.2 0-1.2-.4-2.4-1-3.4M64.7 3.8v39.1h12.5v-6.1h-5.8V26.1h5.4v-6h-5.4V9.8h5.7v-6zM187.4 4.2v5.9h4.1v33.2h6.8V10.2h4v-6zM155.9 4.2v39.1h11.5v-6.1h-4.8v-33zM142.4 4.2v39.1H154v-6.1h-5v-33z"/><g><path d="M209.6 43.3V4h34.6c-.3.3-4.8 5.6-4.8 5.6l-24.1-.1v28.2h28.1l.1-14.7 5.5-5.5v25.8h-39.4z"/><path d="M229.8 33.3s-8.5-7.7-12.5-11.7c1.5-1.5 4.8-4.9 4.8-4.9l7.3 8.4 21-25 6.4 6.8-27 26.4z"/></g></svg>